<svg xmlns="http://www.w3.org/2000/svg" width="75" height="75" viewBox="0 0 75 75">
  <g id="Group_6" data-name="Group 6" transform="translate(-1193 -3615)">
    <g id="ArtStation-logomark-white" transform="translate(1158.6 3582.5)">
      <path id="Path_1" data-name="Path 1" d="M51.4,123.3l3.844,6.651h0a4.639,4.639,0,0,0,4.1,2.548H84.959l-5.312-9.2H51.4Z" transform="translate(0 -43.997)" fill="#fff"/>
      <path id="Path_2" data-name="Path 2" d="M120.671,80.074a3.988,3.988,0,0,0-.734-2.305l-15.03-24a4.638,4.638,0,0,0-4.06-2.265H92.9l23.193,36.96,3.671-5.842A4.137,4.137,0,0,0,120.671,80.074Z" transform="translate(-27.295 0)" fill="#fff"/>
      <path id="Path_3" data-name="Path 3" d="M80.888,84.524,70.566,66.6,60.2,84.524Z" transform="translate(-4.999 -9.517)" fill="#fff"/>
    </g>
    <g id="Ellipse_11" data-name="Ellipse 11" transform="translate(1193 3615)" fill="none" stroke="#fff" stroke-width="3">
      <circle cx="37.5" cy="37.5" r="37.5" stroke="none"/>
      <circle cx="37.5" cy="37.5" r="36" fill="none"/>
    </g>
  </g>
</svg>
