<?xml version="1.0" encoding="UTF-8"?><svg xmlns="http://www.w3.org/2000/svg" viewBox="0 0 50 50" fill="#ffffff"><path style="line-height:normal;text-indent:0;text-align:start;text-decoration-line:none;text-decoration-style:solid;text-decoration-color:#000;text-transform:none;block-progression:tb;isolation:auto;mix-blend-mode:normal" d="M25 2C12.31 2 2 12.31 2 25s10.31 23 23 23 23-10.31 23-23S37.69 2 25 2zm0 2c11.61 0 21 9.39 21 21s-9.39 21-21 21S4 36.61 4 25 13.39 4 25 4zm0 7.82l-10.633 6.664L25 25.148l.531-.332 10.102-6.332L25 11.82zm0 2.36l6.867 4.304L25 22.79l-6.867-4.305L25 14.18zm-11 6.484v11.89l10 6.25V27.124l-.457-.297L14 20.664zm22 0l-10 6.459v11.682l10-6.25v-11.89zm-20 3.672l6 3.877v6.982l-6-3.75v-7.11zm18 0v7.11l-6 3.75v-6.983l6-3.877z" font-weight="400" font-family="sans-serif" white-space="normal" overflow="visible"/><metadata><rdf:RDF xmlns:rdf="http://www.w3.org/1999/02/22-rdf-syntax-ns#" xmlns:rdfs="http://www.w3.org/2000/01/rdf-schema#" xmlns:dc="http://purl.org/dc/elements/1.1/" ><rdf:Description about="https://iconscout.com/legal#licenses" dc:title="sketchfab" dc:description="sketchfab" dc:publisher="Iconscout" dc:date="2017-12-09" dc:format="image/svg+xml" dc:language="en"><dc:creator><rdf:Bag><rdf:li>Icons8</rdf:li></rdf:Bag></dc:creator></rdf:Description></rdf:RDF></metadata></svg>