<svg xmlns="http://www.w3.org/2000/svg" viewBox="0 0 398.33 74.08"><defs><style>.cls-1{fill:#fff;}.cls-2{fill:none;stroke:#fff;stroke-miterlimit:10;stroke-width:4px;}.cls-3{fill:#55afbc;}</style></defs><g id="Laag_2" data-name="Laag 2"><g id="Laag_1-2" data-name="Laag 1"><path class="cls-1" d="M102.8,53a17.58,17.58,0,0,1-6.92-6.54A17.87,17.87,0,0,1,93.37,37a17.87,17.87,0,0,1,2.51-9.38,17.68,17.68,0,0,1,6.92-6.55,22,22,0,0,1,19.85,0A17.74,17.74,0,0,1,132.1,37,17.71,17.71,0,0,1,122.65,53a21.88,21.88,0,0,1-19.85,0Zm15.6-6a10.3,10.3,0,0,0,4-4A11.81,11.81,0,0,0,123.81,37a11.85,11.85,0,0,0-1.44-5.87,10.3,10.3,0,0,0-4-4,11.84,11.84,0,0,0-11.32,0,10.3,10.3,0,0,0-4,4A11.85,11.85,0,0,0,101.67,37a11.81,11.81,0,0,0,1.44,5.86,10.3,10.3,0,0,0,4,4,11.84,11.84,0,0,0,11.32,0Z"/><path class="cls-1" d="M143,53.34a13.23,13.23,0,0,1-5.34-5,13.71,13.71,0,0,1-1.92-7.23,13.76,13.76,0,0,1,1.92-7.23,13.37,13.37,0,0,1,5.34-5,17.43,17.43,0,0,1,15.39,0,13.42,13.42,0,0,1,5.31,5,13.76,13.76,0,0,1,1.92,7.23,13.71,13.71,0,0,1-1.92,7.23,13.28,13.28,0,0,1-5.31,5,17.35,17.35,0,0,1-15.39,0Zm12.68-6.72a7.65,7.65,0,0,0,2-5.49,7.61,7.61,0,0,0-2-5.48,6.53,6.53,0,0,0-5-2,6.62,6.62,0,0,0-5,2,7.53,7.53,0,0,0-2,5.48,7.57,7.57,0,0,0,2,5.49,6.66,6.66,0,0,0,5,2.05A6.57,6.57,0,0,0,155.63,46.62Z"/><path class="cls-1" d="M182.18,28.14a14.21,14.21,0,0,1,5.53-1v7.28c-.87-.07-1.46-.1-1.77-.1a7.26,7.26,0,0,0-5.31,1.89c-1.28,1.27-1.92,3.16-1.92,5.69V54.73h-7.88V27.53h7.53v3.59A8.76,8.76,0,0,1,182.18,28.14Z"/><path class="cls-1" d="M210.92,53.42a8.28,8.28,0,0,1-2.86,1.29,14.77,14.77,0,0,1-3.56.43q-4.86,0-7.51-2.48t-2.65-7.28V34.21h-4.2V28.14h4.2V21.52h7.88v6.62H209v6.07h-6.78V45.28a3.71,3.71,0,0,0,.89,2.65,3.25,3.25,0,0,0,2.5.94,5.06,5.06,0,0,0,3.18-1Z"/><path class="cls-1" d="M230.23,19.34h16.08a22.65,22.65,0,0,1,10.18,2.2,16.54,16.54,0,0,1,6.88,6.19A17.5,17.5,0,0,1,265.82,37a17.44,17.44,0,0,1-2.45,9.3,16.47,16.47,0,0,1-6.88,6.19,22.52,22.52,0,0,1-10.18,2.2H230.23ZM245.9,48a11.91,11.91,0,0,0,8.47-3,10.42,10.42,0,0,0,3.16-8,10.46,10.46,0,0,0-3.16-8,11.9,11.9,0,0,0-8.47-2.95h-7.48V48Z"/><path class="cls-1" d="M271.84,22.48a4.27,4.27,0,0,1,0-6.27,5,5,0,0,1,3.54-1.27,5.12,5.12,0,0,1,3.53,1.22,3.89,3.89,0,0,1,1.37,3,4.29,4.29,0,0,1-1.37,3.26,4.94,4.94,0,0,1-3.53,1.29A5,5,0,0,1,271.84,22.48Zm-.41,5.05h7.89v27.2h-7.89Z"/><path class="cls-1" d="M314.71,27.53V50.18q0,7.49-3.9,11.12t-11.37,3.64A28.45,28.45,0,0,1,292,64a16.26,16.26,0,0,1-5.87-2.78l3.14-5.66a12.92,12.92,0,0,0,4.35,2.25,17.13,17.13,0,0,0,5.25.83c2.73,0,4.75-.61,6-1.84s1.95-3.09,1.95-5.59V50c-2.05,2.26-4.92,3.39-8.59,3.39a14.36,14.36,0,0,1-6.85-1.65,12.39,12.39,0,0,1-4.93-4.62,12.88,12.88,0,0,1-1.82-6.88,12.87,12.87,0,0,1,1.82-6.87,12.49,12.49,0,0,1,4.93-4.63,14.47,14.47,0,0,1,6.85-1.64q5.91,0,9,3.89V27.53ZM304.93,45.1a6.27,6.27,0,0,0,2-4.83,6.28,6.28,0,0,0-2-4.83,8.11,8.11,0,0,0-10.29,0,6.25,6.25,0,0,0-2,4.83,6.23,6.23,0,0,0,2,4.83,8.08,8.08,0,0,0,10.29,0Z"/><path class="cls-1" d="M322.44,22.48a4.29,4.29,0,0,1,0-6.27A5,5,0,0,1,326,14.94a5.13,5.13,0,0,1,3.54,1.22,3.89,3.89,0,0,1,1.37,3,4.29,4.29,0,0,1-1.37,3.26A4.94,4.94,0,0,1,326,23.74,5,5,0,0,1,322.44,22.48Zm-.4,5.05h7.89v27.2H322Z"/><path class="cls-1" d="M354.8,53.42a8.28,8.28,0,0,1-2.86,1.29,14.77,14.77,0,0,1-3.56.43q-4.86,0-7.51-2.48t-2.65-7.28V34.21H334V28.14h4.2V21.52h7.88v6.62h6.78v6.07H346.1V45.28a3.71,3.71,0,0,0,.89,2.65,3.25,3.25,0,0,0,2.5.94,5.11,5.11,0,0,0,3.19-1Z"/><path class="cls-1" d="M379.93,30.14q3.38,3,3.38,9.07V54.73h-7.38V51.34q-2.22,3.79-8.29,3.8a13,13,0,0,1-5.43-1.06,8.1,8.1,0,0,1-3.52-2.94,7.59,7.59,0,0,1-1.21-4.24,7.08,7.08,0,0,1,2.86-6q2.85-2.18,8.82-2.17h6.27a5,5,0,0,0-1.57-4,6.89,6.89,0,0,0-4.7-1.39,13.82,13.82,0,0,0-4.27.68,11.56,11.56,0,0,0-3.57,1.84l-2.83-5.51A17.09,17.09,0,0,1,363.82,28a24.09,24.09,0,0,1,6.4-.86Q376.54,27.13,379.93,30.14ZM373.2,48.89a5.1,5.1,0,0,0,2.23-2.75V43.36H370q-4.86,0-4.86,3.18a2.84,2.84,0,0,0,1.19,2.4,5.35,5.35,0,0,0,3.26.89A6.8,6.8,0,0,0,373.2,48.89Z"/><path class="cls-1" d="M390.44,17.22h7.89V54.73h-7.89Z"/><g id="Laag_2-2" data-name="Laag 2"><g id="Laag_1-3" data-name="Laag 1"><path id="Path_395" data-name="Path 395" class="cls-2" d="M54.34,67.44a34.95,34.95,0,0,1-48.63-46"/><path id="Path_396" data-name="Path 396" class="cls-2" d="M68.35,52.38A34.3,34.3,0,0,0,72,37,34.89,34.89,0,0,0,37.19,2H37.1A33.88,33.88,0,0,0,19.68,6.74"/><path id="Path_397" data-name="Path 397" class="cls-2" d="M45.77,17.72A21.09,21.09,0,1,0,28.3,56.12,20.31,20.31,0,0,0,37,58,21.07,21.07,0,0,0,58.08,36.94h0A21.38,21.38,0,0,0,55.62,27"/><circle id="Ellipse_247" data-name="Ellipse 247" class="cls-3" cx="51.55" cy="21.46" r="4.5"/><circle id="Ellipse_248" data-name="Ellipse 248" class="cls-3" cx="62.34" cy="60.48" r="7.24"/><circle id="Ellipse_249" data-name="Ellipse 249" class="cls-3" cx="11.82" cy="13.17" r="7.67"/></g></g></g></g></svg>